<?xml version="1.0" encoding="UTF-8" standalone="no"?>
<svg
   xmlns:dc="http://purl.org/dc/elements/1.1/"
   xmlns:cc="http://creativecommons.org/ns#"
   xmlns:rdf="http://www.w3.org/1999/02/22-rdf-syntax-ns#"
   xmlns:svg="http://www.w3.org/2000/svg"
   xmlns="http://www.w3.org/2000/svg"
   id="svg32"
   xml:space="preserve"
   viewBox="0 0 550 445"
   height="445"
   width="550"
   version="1.1"><metadata
     id="metadata36"><rdf:RDF><cc:Work
         rdf:about=""><dc:format>image/svg+xml</dc:format><dc:type
           rdf:resource="http://purl.org/dc/dcmitype/StillImage" /></cc:Work></rdf:RDF></metadata><defs
     id="defs4"><style
       id="style2"
       type="text/css">@import url(&quot;https://fonts.googleapis.com/css2?family=Megrim:wght@400&quot;);</style></defs><defs
     id="defs6" /><g
     id="icon"
     transform="matrix(0.24 0 0 0.24 275 176.89)"><g
       id="g21"
       style=""><g
         id="icon_piece"
         transform="matrix(1 0 0 1 70.45 0.5)"><linearGradient
           y2="404.326441982585"
           x2="268.3952945670118"
           y1="0"
           x1="0"
           gradientTransform="matrix(1 0 0 1 140.89 2.98)"
           gradientUnits="userSpaceOnUse"
           id="SVGID_12"><stop
             id="stop8"
             style="stop-color:rgb(255,249,196);stop-opacity: 1"
             offset="0%" /></linearGradient><path
           id="path11"
           stroke-linecap="round"
           d="M 403.281 395.304 c -14.939 0 -27.202 -11.646 -28.208 -26.334 c 17.17 -8.072 29.09 -25.528 29.09 -45.723 c 0 -27.846 -22.654 -50.5 -50.5 -50.5 c -13.046 0 -24.952 4.973 -33.923 13.123 l -39.112 -67.744 c 2.118 -2.559 5.479 -6.4 9.525 -10.243 c 8.431 -8.006 16.269 -12.592 22.069 -12.914 c 1.914 -0.106 3.663 -1.122 4.704 -2.731 c 11.09 -17.139 85.237 -174.026 88.388 -180.697 c 1.364 -2.887 0.229 -6.336 -2.584 -7.848 c -2.813 -1.51 -6.314 -0.556 -7.972 2.174 L 273.39 206.015 L 152.021 5.866 c -1.656 -2.729 -5.158 -3.685 -7.972 -2.174 c -2.813 1.512 -3.948 4.961 -2.584 7.848 c 3.15 6.671 77.298 163.559 88.388 180.697 c 1.041 1.609 2.79 2.625 4.704 2.731 c 5.801 0.322 13.639 4.908 22.069 12.914 c 4.046 3.843 7.407 7.684 9.525 10.243 l -39.112 67.744 c -8.971 -8.149 -20.877 -13.123 -33.923 -13.123 c -27.846 0 -50.5 22.654 -50.5 50.5 s 22.654 50.5 50.5 50.5 s 50.5 -22.654 50.5 -50.5 c 0 -10.224 -3.063 -19.741 -8.306 -27.701 l 38.081 -65.958 l 38.081 65.958 c -5.243 7.96 -8.306 17.478 -8.306 27.701 c 0 27.846 22.654 50.5 50.5 50.5 c 3.337 0 6.597 -0.334 9.755 -0.954 c 2.809 19.487 19.611 34.511 39.863 34.511 c 3.313 0 6 -2.687 6 -6 S 406.595 395.304 403.281 395.304 z M 342.254 115.595 c -15.275 31.484 -28.591 58.342 -34.005 67.797 c -3.031 0.567 -6.045 1.653 -8.98 3.091 L 342.254 115.595 z M 238.53 183.392 c -5.414 -9.455 -18.729 -36.313 -34.005 -67.797 l 42.985 70.888 C 244.575 185.045 241.562 183.959 238.53 183.392 z M 193.115 361.747 c -21.229 0 -38.5 -17.271 -38.5 -38.5 s 17.271 -38.5 38.5 -38.5 s 38.5 17.271 38.5 38.5 S 214.344 361.747 193.115 361.747 z M 315.164 323.247 c 0 -21.229 17.271 -38.5 38.5 -38.5 s 38.5 17.271 38.5 38.5 s -17.271 38.5 -38.5 38.5 S 315.164 344.476 315.164 323.247 z"
           transform=" translate(-275.09, -205.14)"
           style="stroke: none; stroke-width: 1; stroke-dasharray: none; stroke-linecap: butt; stroke-dashoffset: 0; stroke-linejoin: miter; stroke-miterlimit: 4; fill: #ffffff; fill-rule: nonzero; opacity: 1;" /></g><g
         id="g19"
         transform="matrix(1 0 0 1 -147.75 -14.76)"><linearGradient
           y2="375.808"
           x2="113.78"
           y1="0"
           x1="0"
           gradientTransform="matrix(1 0 0 1 0 1.98)"
           gradientUnits="userSpaceOnUse"
           id="SVGID_13"><stop
             id="stop14"
             style="stop-color:rgb(255,249,196);stop-opacity: 1"
             offset="0%" /></linearGradient><path
           id="path17"
           stroke-linecap="round"
           d="M 107.779 13.978 c 3.313 0 6 -2.687 6 -6 s -2.687 -6 -6 -6 H 28.227 C 12.662 1.978 0 14.64 0 30.204 V 349.56 c 0 15.563 12.662 28.226 28.227 28.226 h 79.553 c 3.313 0 6 -2.687 6 -6 s -2.687 -6 -6 -6 H 34.227 v -11.279 h 73.553 c 3.313 0 6 -2.687 6 -6 s -2.687 -6 -6 -6 H 34.227 v -12.403 h 73.553 c 3.313 0 6 -2.687 6 -6 s -2.687 -6 -6 -6 H 34.227 v -12.404 h 73.553 c 3.313 0 6 -2.687 6 -6 s -2.687 -6 -6 -6 H 34.227 v -12.403 h 73.553 c 3.313 0 6 -2.687 6 -6 s -2.687 -6 -6 -6 H 34.227 v -12.403 h 73.553 c 3.313 0 6 -2.687 6 -6 s -2.687 -6 -6 -6 H 34.227 v -12.404 h 73.553 c 3.313 0 6 -2.687 6 -6 s -2.687 -6 -6 -6 H 34.227 v -12.403 h 73.553 c 3.313 0 6 -2.687 6 -6 s -2.687 -6 -6 -6 H 34.227 V 183.68 h 73.553 c 3.313 0 6 -2.687 6 -6 s -2.687 -6 -6 -6 H 34.227 v -12.403 h 73.553 c 3.313 0 6 -2.687 6 -6 s -2.687 -6 -6 -6 H 34.227 v -12.404 h 73.553 c 3.313 0 6 -2.687 6 -6 s -2.687 -6 -6 -6 H 34.227 v -12.403 h 73.553 c 3.313 0 6 -2.687 6 -6 s -2.687 -6 -6 -6 H 34.227 V 86.064 h 73.553 c 3.313 0 6 -2.687 6 -6 s -2.687 -6 -6 -6 H 34.227 V 61.661 h 73.553 c 3.313 0 6 -2.687 6 -6 s -2.687 -6 -6 -6 H 34.227 V 37.257 h 73.553 c 3.313 0 6 -2.687 6 -6 s -2.687 -6 -6 -6 H 34.227 V 13.978 H 107.779 z M 12 349.56 V 30.204 c 0 -6.827 4.243 -12.671 10.227 -15.063 v 349.481 C 16.243 362.23 12 356.386 12 349.56 z"
           transform=" translate(-56.89, -189.88)"
           style="stroke: none; stroke-width: 1; stroke-dasharray: none; stroke-linecap: butt; stroke-dashoffset: 0; stroke-linejoin: miter; stroke-miterlimit: 4; fill: #ffffff; fill-rule: nonzero; opacity: 1;" /></g></g></g><g
     id="logo-name"
     style=""
     transform="matrix(1.22 0 0 1.22 275.61 273.11)"><linearGradient
       y2="33.89999999999999"
       x2="0"
       y1="0"
       x1="0"
       gradientTransform="matrix(1 0 0 1 -148.2 -16.95)"
       gradientUnits="userSpaceOnUse"
       id="SVGID_14"><stop
         id="stop24"
         style="stop-color:rgb(255,249,196);stop-opacity: 1"
         offset="0%" /></linearGradient><text
       id="text29"
       style="stroke: none; stroke-width: 1; stroke-dasharray: none; stroke-linecap: butt; stroke-dashoffset: 0; stroke-linejoin: miter; stroke-miterlimit: 4; fill: #ffffff; fill-rule: nonzero; opacity: 1; white-space: pre;"
       font-weight="normal"
       font-style="normal"
       font-size="30"
       font-family="Megrim"
       xml:space="preserve"><tspan
         id="tspan27"
         y="9.42"
         x="-148.2">Churchtown Barbers</tspan></text>
</g></svg>